<?xml version="1.0" encoding="UTF-8"?>
<svg id="Capa_1" data-name="Capa 1" xmlns="http://www.w3.org/2000/svg" viewBox="0 0 416.53 416.53">
  <defs>
    <style>
      .cls-1 {
        fill: #0f162a;
        stroke-width: 0px;
      }
    </style>
  </defs>
  <path class="cls-1" d="M388.61,103.72c-18.62-31.91-43.89-57.17-75.79-75.79C280.9,9.31,246.06,0,208.27,0s-72.63,9.31-104.54,27.93c-31.91,18.62-57.17,43.88-75.8,75.79C9.31,135.64,0,170.48,0,208.27s9.31,72.63,27.93,104.54c18.62,31.91,43.89,57.17,75.8,75.79,31.91,18.62,66.76,27.93,104.54,27.93s72.63-9.31,104.54-27.93c31.91-18.62,57.17-43.89,75.79-75.79,18.62-31.91,27.93-66.76,27.93-104.54,0-37.79-9.31-72.64-27.92-104.54ZM343.59,246.5l-27.66,27.67c-3.44,3.43-7.5,5.15-12.2,5.15s-8.77-1.72-12.2-5.15l-83.26-83.26-83.25,83.26c-3.43,3.43-7.5,5.15-12.2,5.15s-8.77-1.72-12.21-5.15l-27.66-27.67c-3.44-3.43-5.15-7.5-5.15-12.2s1.72-8.76,5.15-12.2l123.12-123.11c3.44-3.44,7.5-5.15,12.2-5.15s8.77,1.72,12.2,5.15l123.12,123.11c3.43,3.44,5.15,7.51,5.15,12.2s-1.72,8.78-5.15,12.2Z"/>
</svg>